PathFileType	4	(X/Y/Z)	C:/Users/beibeiliu/ov580/test_trc/capture2\sequence.8_training_dense_right.trc
DataRate	CameraRate	NumFrames	NumMarkers	Units	OrigDataRate	OrigDataStartFrame	OrigNumFrames
120	120	16	19	mm	120	301	400
Frame#	Time	ThumbCMC			ThumbMCP			ThumbIP			ThumbTip			IndexMCP			IndexPIP			IndexTip			MiddleMCP			MiddlePIP			MiddleTip			RingMCP			RingPIP			RingTip			PinkyMCP			PinkyPIP			PinkyTip			BackHand1			BackHand2			BackHand3	
		X0	Y0	Z0	X1	Y1	Z1	X2	Y2	Z2	X3	Y3	Z3	X4	Y4	Z4	X5	Y5	Z5	X6	Y6	Z6	X7	Y7	Z7	X8	Y8	Z8	X9	Y9	Z9	X10	Y10	Z10	X11	Y11	Z11	X12	Y12	Z12	X13	Y13	Z13	X14	Y14	Z14	X15	Y15	Z15	X16	Y16	Z16	X17	Y17	Z17	X18	Y18	Z18	
300	2.5	102.255	57.8371	-23.0081	78.9028	44.0377	-38.8332	59.5561	38.8882	-58.4183	46.9953	35.0177	-68.5658	108.794	60.1067	-99.2269	100.889	56.3748	-118.94	96.0896	60.5824	-143.228	138.028	59.6213	-105.042	136.835	56.264	-125.552	145.629	56.6501	-153.667	162.529	50.56	-96.3987	168.592	45.951	-117.284	173.778	43.7158	-140.666	184.614	35.7039	-81.7758	196.227	26.1399	-95.6589	208.201	26.6461	-107.933	158.015	67.9918	-52.2092	158.892	74.316	-22.928	126.89	76.8533	-38.5808	
301	2.50833	98.1143	63.0706	-21.7021	81.3982	48.2518	-40.6448	60.004	44.9712	-56.2173	45.2205	42.452	-72.3082	109.289	63.7255	-98.4023	101.302	59.9661	-119.574	99.6789	64.4402	-143.861	141.41	60.6272	-106.664	139.934	58.0694	-128.26	146.323	58.6729	-155.456	161.719	49.3726	-98.9022	166.753	45.4563	-116.78	173.245	44.213	-143.507	180.825	35.5085	-83.3727	191.014	24.7158	-92.2298	211.548	23.3403	-110.184	160.635	67.3141	-48.6657	161.842	75.7703	-18.9705	132.668	77.2836	-41.0966	
302	2.51667	102.895	64.1977	-23.2765	83.3774	52.3185	-40.1136	62.456	50.9332	-57.2005	48.6149	48.329	-70.3076	110.372	66.022	-95.5728	104.931	62.3968	-120.808	100.782	66.9756	-144.806	140.171	60.2303	-101.711	142.328	56.9202	-128.187	146.761	58.9352	-154.398	164.815	47.9824	-97.7982	169.951	41.6872	-117.133	177.269	40.2586	-141.223	180.872	33.1143	-80.9873	191.687	20.4473	-92.3651	207.426	16.3206	-107.305	159.646	67.5337	-50.5474	161.497	74.2316	-17.3295	133.408	79.2183	-40.0159	
303	2.525	102.152	69.1954	-22.5358	82.5227	57.7493	-41.7126	60.6179	57.464	-58.2165	46.1066	56.9777	-67.7585	114.912	67.8578	-95.9234	103.785	66.8812	-119.05	103.064	69.4884	-139.649	144.04	59.8827	-104.916	140.07	58.8202	-129.6	145.583	58.0139	-152.624	162.856	46.4648	-92.9917	171.089	38.8639	-116.021	176.565	37.0853	-140.998	183.075	27.6216	-79.8296	187.972	16.2842	-90.0747	203.635	12.659	-109.924	160.732	64.59	-51.4877	163.219	71.4711	-20.0149	133.367	80.5667	-38.3036	
304	2.53333	106.328	71.5392	-23.1465	84.9767	63.0816	-40.7211	66.6382	62.5348	-58.691	50.2895	63.0207	-70.2572	113.833	71.2773	-98.904	107.906	68.9771	-116.977	107.79	70.9325	-143.826	143.315	60.6632	-104.1	144.17	56.3344	-126.816	147.308	58.3768	-155.948	162.223	43.3613	-97.2126	169.373	35.768	-118.708	175.642	31.3681	-138.153	181.257	23.244	-77.7778	184.587	11.9832	-88.3748	201.256	2.60694	-102.091	164.198	62.1452	-50.433	167.168	68.9726	-21.5285	137.53	83.5696	-37.5961	
305	2.54167	109.065	74.4313	-21.749	87.1722	67.4808	-36.2151	68.6996	68.1551	-59.6757	51.9558	70.2279	-73.529	118.84	70.5427	-95.8967	110.15	70.1748	-116.384	110.031	73.1898	-140.647	145.21	58.133	-100.394	143.818	54.2786	-127.973	148.253	54.0818	-152.42	163.029	38.1611	-96.6345	166.019	31.5877	-113.5	172.99	26.3426	-138.236	177.023	18.3156	-73.1019	184.129	2.76411	-90.0642	193.212	-3.30941	-104.759	166.899	58.0146	-46.0997	172.169	63.5259	-20.1663	140.868	80.6176	-36.508	
306	2.55	110.752	78.6135	-23.6309	87.4409	73.7294	-38.4636	68.2765	77.5089	-58.3896	55.3633	78.3205	-70.6807	119.627	73.78	-99.0987	115.622	70.068	-118.776	116.365	72.7895	-142.385	147.809	54.9216	-102.339	145.002	52.1026	-128.34	151.223	48.9002	-151.454	161.836	34.823	-93.4741	164.394	25.9904	-114.324	174.084	18.2246	-138.106	173.128	14.9124	-77.3953	176.544	-0.00757183	-86.4235	192.133	-12.5358	-105.57	166.7	55.7023	-45.4301	172.379	58.8181	-16.2982	147.213	76.1732	-39.1485	
307	2.55833	114.721	79.8857	-24.235	92.7975	76.4622	-40.532	75.2432	82.9434	-57.7146	56.9643	90.7779	-74.9831	127.111	70.3662	-100.744	116.391	74.5542	-122.195	116.887	76.0473	-141.985	148.326	53.5077	-103.775	146.978	48.6761	-127.712	151.495	46.865	-150.533	163.731	29.582	-93.4279	161.903	22.8263	-114.32	169.46	14.0544	-138.952	171.042	7.93813	-73.534	172.394	-7.53337	-89.0908	181.895	-19.135	-106.432	168.717	48.6458	-47.2333	169.694	57.5833	-20.6654	149.928	77.0799	-39.1612	
308	2.56667	120.971	81.5362	-26.3235	98.17	82.8101	-38.8236	80.524	90.037	-58.0661	65.7183	96.8606	-75.7632	131.705	71.3649	-99.0556	124.694	72.1607	-124.258	125.28	75.0271	-141.772	151.969	48.3138	-104.606	149.991	44.1375	-123.567	153.818	41.8404	-151.354	163.097	26.2246	-94.834	163.19	16.4507	-112.085	164.187	10.8148	-136.438	165.05	8.88801	-73.0525	166.233	-10.7673	-86.1297	174.362	-28.5122	-105.329	169.647	46.0004	-47.4971	174.211	53.1739	-20.8239	152.853	75.2958	-39.5004	
309	2.575	125.951	82.4697	-26.2679	101.893	87.6723	-45.6288	85.0531	96.9873	-64.449	73.662	102.063	-77.4074	133.288	73.8216	-100.385	129.382	72.4753	-120.972	129.805	74.5213	-144.426	154.306	45.6948	-100.198	152.667	39.9572	-127.518	155.916	36.0781	-151.018	160.537	22.7234	-95.5485	161.685	11.8873	-112.434	163.443	2.18825	-137.96	162.271	-0.159668	-72.2316	160.481	-14.582	-84.1991	164.517	-33.341	-101.281	170.779	43.6488	-44.1311	176.734	46.5056	-17.2703	159.802	70.8615	-40.8829	
310	2.58333	129.539	84.3176	-28.0095	109.057	86.3385	-43.8679	93.3196	101.158	-60.6163	82.0813	107.493	-78.4288	138.446	70.8627	-100.856	133.876	71.013	-119.66	135.159	70.4699	-142.618	154.26	42.4257	-100.918	153.131	36.2016	-123.688	155.542	35.4805	-151.369	159.763	17.0132	-89.6235	155.991	9.2941	-114.59	156.662	-0.670655	-137.893	158.898	-5.5291	-71.9778	152.18	-19.5798	-88.4668	154.035	-40.2116	-102.688	171.532	38.1636	-46.792	175.188	42.561	-17.241	161.559	66.941	-40.3034	
311	2.59167	136.528	80.8371	-27.018	116.054	89.8346	-40.6589	104.063	99.4287	-60.9691	92.0042	111.522	-77.0135	144.548	65.832	-99.2914	138.465	67.817	-119.196	140.713	70.2241	-146.877	154.903	40.489	-102.679	153.841	33.4108	-123.986	155.944	29.6858	-149.142	155.826	15.6832	-91.186	153.845	3.40617	-114.242	153.066	-5.9893	-137.944	153.24	-7.92795	-68.9707	147.36	-25.1026	-83.5169	145.55	-40.1728	-103.052	169.916	30.6524	-44.6287	176.453	34.3618	-17.4603	165.362	61.252	-37.5989	
312	2.6	142.892	81.629	-25.6734	124.924	92.3648	-43.0638	113.095	106.312	-64.949	103.731	114.477	-82.4505	148.096	66.0896	-100.558	144.143	64.9592	-122.603	146.227	64.3727	-142.408	156.612	37.3795	-101.646	154.179	32.1958	-125.328	155.636	25.9407	-150.091	154.347	9.62765	-93.9899	149.62	1.68255	-112.432	148.988	-8.33919	-138.476	148.17	-10.0923	-74.2681	139.118	-23.7209	-87.2121	137.671	-46.0753	-101.439	172.849	22.6273	-43.8514	176.019	32.2033	-19.5462	170.731	60.0561	-40.2692	
313	2.60833	150.147	77.7169	-29.0133	134.037	94.8379	-43.7528	125.752	107.73	-65.5788	118.284	119.617	-82.0285	153.732	57.9795	-98.6282	148.673	64.275	-122.65	151.693	60.9559	-143.504	158.244	27.5979	-101.378	154.009	24.6301	-124.282	155.945	20.3305	-150.012	152.794	4.81536	-88.4843	147.437	-3.23868	-110.238	144.593	-12.3622	-133.982	142.303	-13.6438	-72.3774	132.876	-25.0477	-87.6122	130.685	-44.8158	-97.0423	169.166	19.2214	-46.609	177.094	21.9505	-13.4533	173.864	51.1461	-37.9777	
314	2.61667	159.123	79.5969	-26.1537	143.958	91.5404	-43.4207	136.889	104.266	-70.6535	132.637	118.311	-85.3497	159.677	56.3684	-101.413	156.03	59.8235	-120.548	157.266	55.2638	-144.213	159.579	25.7253	-100.607	155.628	21.6138	-126.808	155.418	11.581	-147.34	150.882	2.36822	-89.7259	145.207	-3.41716	-109.848	141.661	-13.8697	-135.862	139.624	-11.1961	-70.1985	128.13	-24.7923	-84.2093	124.421	-42.0408	-98.8239	168.111	11.4281	-44.7531	175.399	21.3124	-16.6003	177.313	48.3238	-37.8751	
315	2.625	165.157	72.8452	-25.6868	152.527	89.5036	-44.197	147.753	102.669	-68.2399	146.598	119.853	-82.6461	164.254	50.3125	-99.5601	161.084	51.5117	-119.996	164.876	52.0111	-147.985	161.415	22.944	-98.7539	156.96	14.6425	-124.781	156.571	10.9438	-148.395	149.492	-2.30404	-91.2894	143.559	-7.3328	-108.564	139.006	-16.5626	-136.105	135.3	-17.2449	-71.077	123.404	-26.4543	-84.0879	115.129	-47.8282	-97.1667	168.369	8.56206	-45.1404	174.853	14.4628	-14.1221	181.635	40.4821	-39.363	
